<svg xmlns="http://www.w3.org/2000/svg" xmlns:xlink="http://www.w3.org/1999/xlink" width="1500" height="379" viewBox="0 0 1500 379">
  <defs>
    <clipPath id="clip-path">
      <rect id="Rectangle_48" data-name="Rectangle 48" width="1500" height="379" rx="20" transform="translate(50 560)" fill="#fff"/>
    </clipPath>
    <linearGradient id="linear-gradient" x1="0.5" x2="0.5" y2="0.483" gradientUnits="objectBoundingBox">
      <stop offset="0" stop-color="#efefef"/>
      <stop offset="1" stop-color="#fff" stop-opacity="0"/>
    </linearGradient>
    <linearGradient id="linear-gradient-2" x1="0.5" x2="0.5" y2="0.624" gradientUnits="objectBoundingBox">
      <stop offset="0" stop-color="#e0e0e0"/>
      <stop offset="1" stop-color="#fff" stop-opacity="0"/>
    </linearGradient>
  </defs>
  <g id="Group_149" data-name="Group 149" transform="translate(-50 -560)">
    <g id="Mask_Group_3" data-name="Mask Group 3" clip-path="url(#clip-path)">
      <path id="Path_15" data-name="Path 15" d="M4294.254,1876s-64.115-53.722-138.248-53.96-148.282,37.431-198.568,33.222-137.818-43.286-266.571-27.094-155.295,49.912-211.548,27.094-177.027-73.173-282.654-49.982-145.21,78.8-213.472,49.982S2792,1805.279,2792,1805.279v314.462H4294.254Z" transform="translate(-2742 -1178.315)" fill="url(#linear-gradient)" style="mix-blend-mode: multiply;isolation: isolate"/>
      <path id="Path_16" data-name="Path 16" d="M2792,1876s112.769-37.463,186.9-37.7,120.972,41.911,171.257,37.7,116.475-64.025,245.228-47.833,155.295,49.912,211.548,27.094,158.117-43.22,263.744-20.029,164.119,48.844,232.381,20.029,191.194-49.982,191.194-49.982v314.462H2792Z" transform="translate(-2742 -1180.315)" fill="url(#linear-gradient-2)" style="mix-blend-mode: multiply;isolation: isolate"/>
    </g>
    <g id="boat-with-containers" transform="matrix(0.914, -0.407, 0.407, 0.914, 422.713, 591.24)" opacity="0.325">
      <path id="Path_54" data-name="Path 54" d="M34.528,221.024H26.163a.51.51,0,0,0-.51.509v3.8a.51.51,0,0,0,.51.51h8.365a.51.51,0,0,0,.51-.51v-3.8A.51.51,0,0,0,34.528,221.024Z" transform="translate(-23.805 -142.074)" fill="#9f9f9f"/>
      <g id="Group_49" data-name="Group 49" transform="translate(14.245 75.846)">
        <path id="Path_55" data-name="Path 55" d="M335.226,240.743h-3.017a.218.218,0,0,0-.218.218v3.017a.218.218,0,0,0,.218.218h3.017a.218.218,0,0,0,.218-.218v-3.017A.218.218,0,0,0,335.226,240.743Z" transform="translate(-322.312 -236.218)" fill="#9f9f9f"/>
        <path id="Path_56" data-name="Path 56" d="M268.072,240.743h-3.017a.218.218,0,0,0-.218.218v3.017a.218.218,0,0,0,.218.218h3.017a.218.218,0,0,0,.219-.218v-3.017A.218.218,0,0,0,268.072,240.743Z" transform="translate(-259.998 -236.218)" fill="#9f9f9f"/>
        <path id="Path_57" data-name="Path 57" d="M200.919,240.743H197.9a.218.218,0,0,0-.218.218v3.017a.218.218,0,0,0,.218.218h3.017a.218.218,0,0,0,.218-.218v-3.017A.218.218,0,0,0,200.919,240.743Z" transform="translate(-197.684 -236.218)" fill="#9f9f9f"/>
        <path id="Path_58" data-name="Path 58" d="M268.072,177.951h-3.017a.218.218,0,0,0-.218.218v3.017a.218.218,0,0,0,.218.218h3.017a.218.218,0,0,0,.219-.218v-3.017A.218.218,0,0,0,268.072,177.951Z" transform="translate(-259.998 -177.951)" fill="#9f9f9f"/>
        <path id="Path_59" data-name="Path 59" d="M200.919,177.951H197.9a.218.218,0,0,0-.218.218v3.017a.218.218,0,0,0,.218.218h3.017a.218.218,0,0,0,.218-.218v-3.017A.218.218,0,0,0,200.919,177.951Z" transform="translate(-197.684 -177.951)" fill="#9f9f9f"/>
      </g>
      <path id="Path_60" data-name="Path 60" d="M70.867,150.818H68.148a.291.291,0,0,0-.291.291v3.449a.291.291,0,0,0,.291.291h2.719a.291.291,0,0,0,.291-.291v-3.449A.291.291,0,0,0,70.867,150.818Z" transform="translate(-62.968 -76.928)" fill="#9f9f9f"/>
      <path id="Path_61" data-name="Path 61" d="M70.867,71.516h-.923V68.353a.437.437,0,0,0-.874,0v3.163h-.923a.291.291,0,0,0-.291.291v.764a.291.291,0,0,0,.291.291h2.719a.291.291,0,0,0,.291-.291v-.764A.291.291,0,0,0,70.867,71.516Z" transform="translate(-62.968)" fill="#9f9f9f"/>
      <path id="Path_62" data-name="Path 62" d="M35.288,289.828a.182.182,0,0,0-.159-.093h-5.8a.182.182,0,0,0-.143.07l-.77.985H.181a.182.182,0,0,0-.169.25s2.465,6.09,3.288,8.119a.182.182,0,0,0,.169.114H29.437a.186.186,0,0,0,.167-.086c1.415-2.3,5.68-9.174,5.68-9.174A.182.182,0,0,0,35.288,289.828ZM23.7,294.384a.715.715,0,1,1,.715-.715A.715.715,0,0,1,23.7,294.384Zm3.464,0a.715.715,0,1,1,.714-.715A.714.714,0,0,1,27.159,294.384Z" transform="translate(0 -205.834)" fill="#9f9f9f"/>
    </g>
    <g id="boat-with-containers-2" data-name="boat-with-containers" transform="translate(859.665 570.572) rotate(-6)" opacity="0.325">
      <path id="Path_54-2" data-name="Path 54" d="M34.528,221.024H26.163a.51.51,0,0,0-.51.509v3.8a.51.51,0,0,0,.51.51h8.365a.51.51,0,0,0,.51-.51v-3.8A.51.51,0,0,0,34.528,221.024Z" transform="translate(-23.805 -142.074)" fill="#9f9f9f"/>
      <g id="Group_49-2" data-name="Group 49" transform="translate(14.245 75.846)">
        <path id="Path_55-2" data-name="Path 55" d="M335.226,240.743h-3.017a.218.218,0,0,0-.218.218v3.017a.218.218,0,0,0,.218.218h3.017a.218.218,0,0,0,.218-.218v-3.017A.218.218,0,0,0,335.226,240.743Z" transform="translate(-322.312 -236.218)" fill="#9f9f9f"/>
        <path id="Path_56-2" data-name="Path 56" d="M268.072,240.743h-3.017a.218.218,0,0,0-.218.218v3.017a.218.218,0,0,0,.218.218h3.017a.218.218,0,0,0,.219-.218v-3.017A.218.218,0,0,0,268.072,240.743Z" transform="translate(-259.998 -236.218)" fill="#9f9f9f"/>
        <path id="Path_57-2" data-name="Path 57" d="M200.919,240.743H197.9a.218.218,0,0,0-.218.218v3.017a.218.218,0,0,0,.218.218h3.017a.218.218,0,0,0,.218-.218v-3.017A.218.218,0,0,0,200.919,240.743Z" transform="translate(-197.684 -236.218)" fill="#9f9f9f"/>
        <path id="Path_58-2" data-name="Path 58" d="M268.072,177.951h-3.017a.218.218,0,0,0-.218.218v3.017a.218.218,0,0,0,.218.218h3.017a.218.218,0,0,0,.219-.218v-3.017A.218.218,0,0,0,268.072,177.951Z" transform="translate(-259.998 -177.951)" fill="#9f9f9f"/>
        <path id="Path_59-2" data-name="Path 59" d="M200.919,177.951H197.9a.218.218,0,0,0-.218.218v3.017a.218.218,0,0,0,.218.218h3.017a.218.218,0,0,0,.218-.218v-3.017A.218.218,0,0,0,200.919,177.951Z" transform="translate(-197.684 -177.951)" fill="#9f9f9f"/>
      </g>
      <path id="Path_60-2" data-name="Path 60" d="M70.867,150.818H68.148a.291.291,0,0,0-.291.291v3.449a.291.291,0,0,0,.291.291h2.719a.291.291,0,0,0,.291-.291v-3.449A.291.291,0,0,0,70.867,150.818Z" transform="translate(-62.968 -76.928)" fill="#9f9f9f"/>
      <path id="Path_61-2" data-name="Path 61" d="M70.867,71.516h-.923V68.353a.437.437,0,0,0-.874,0v3.163h-.923a.291.291,0,0,0-.291.291v.764a.291.291,0,0,0,.291.291h2.719a.291.291,0,0,0,.291-.291v-.764A.291.291,0,0,0,70.867,71.516Z" transform="translate(-62.968)" fill="#9f9f9f"/>
      <path id="Path_62-2" data-name="Path 62" d="M35.288,289.828a.182.182,0,0,0-.159-.093h-5.8a.182.182,0,0,0-.143.07l-.77.985H.181a.182.182,0,0,0-.169.25s2.465,6.09,3.288,8.119a.182.182,0,0,0,.169.114H29.437a.186.186,0,0,0,.167-.086c1.415-2.3,5.68-9.174,5.68-9.174A.182.182,0,0,0,35.288,289.828ZM23.7,294.384a.715.715,0,1,1,.715-.715A.715.715,0,0,1,23.7,294.384Zm3.464,0a.715.715,0,1,1,.714-.715A.714.714,0,0,1,27.159,294.384Z" transform="translate(0 -205.834)" fill="#9f9f9f"/>
    </g>
  </g>
</svg>
