<svg xmlns="http://www.w3.org/2000/svg" width="31.811" height="31.2" viewBox="0 0 31.811 31.2">
  <g id="coal" style="mix-blend-mode: luminosity;isolation: isolate">
    <path id="Path_81" data-name="Path 81" d="M122.658,4.676a2.9,2.9,0,0,0-1.113-1.4l-1.509-1a5.362,5.362,0,0,0-3.584-.857l-1.686.2a2.745,2.745,0,0,1-1.457-.229l-1.46-.665A2.51,2.51,0,0,0,109.5.869l-1.517.929a2.511,2.511,0,0,0-1.055,1.3l-1.847,5.209,6.411,4.35,13.185-2.631Zm0,0" transform="translate(-98.55 -0.499)" fill="#5e5c63"/>
    <path id="Path_82" data-name="Path 82" d="M107,8.321l1.847-5.209a2.511,2.511,0,0,1,1.055-1.3l1.517-.929A2.516,2.516,0,0,1,111.769.7,2.511,2.511,0,0,0,109.5.881l-1.517.929a2.513,2.513,0,0,0-1.055,1.3l-1.847,5.209,6.411,4.35,1.484-.3Zm0,0" transform="translate(-98.55 -0.511)" fill="#504e54"/>
    <g id="Group_67" data-name="Group 67" transform="translate(12.188 3.126)">
      <path id="Path_83" data-name="Path 83" d="M196.656,52.435a.48.48,0,0,1-.48-.48v-.662a.48.48,0,0,1,.96,0v.662A.48.48,0,0,1,196.656,52.435Zm0,0" transform="translate(-196.176 -50.813)" fill="#434a53"/>
      <path id="Path_84" data-name="Path 84" d="M314.414,52.435a.48.48,0,0,1-.48-.48v-.662a.48.48,0,0,1,.96,0v.662A.48.48,0,0,1,314.414,52.435Zm0,0" transform="translate(-306.617 -50.813)" fill="#434a53"/>
      <path id="Path_85" data-name="Path 85" d="M241.907,62.086a1.674,1.674,0,0,1-1.264-.564.48.48,0,0,1,.723-.632.74.74,0,0,0,1.083,0,.48.48,0,0,1,.723.632A1.675,1.675,0,0,1,241.907,62.086Zm0,0" transform="translate(-237.769 -60.11)" fill="#434a53"/>
    </g>
    <path id="Path_86" data-name="Path 86" d="M48.142,246.147l2.823-10.534-.568-2.3H22.439l-.568,2.3,2.823,10.534Zm0,0" transform="translate(-20.512 -218.844)" fill="#d8d7da"/>
    <path id="Path_87" data-name="Path 87" d="M35.14,114.407a3.346,3.346,0,0,0-2.49-.493l-2.02.4a2.628,2.628,0,0,1-.677.043l-.735-.049a5.306,5.306,0,0,0-4.026,1.47l-3.321,3.194.568,2.3H36.226l1.178-5.367Zm0,0" transform="translate(-20.512 -106.809)" fill="#8e8c96"/>
    <path id="Path_88" data-name="Path 88" d="M27.113,122.446a5.3,5.3,0,0,1,2.878-1.421h-.038l-.735-.048a5.306,5.306,0,0,0-4.026,1.47l-3.321,3.194.568,2.3h1.92l-.568-2.3Zm0,0" transform="translate(-20.512 -113.48)" fill="#78767f"/>
    <path id="Path_89" data-name="Path 89" d="M223.9,120.81a2.986,2.986,0,0,0-1.756-1.19l-3.652-.864a2.982,2.982,0,0,0-1.645.078l-4,1.356a7.915,7.915,0,0,0-2.851,1.7l-1.722,1.6,2.774,2.3,14.738-2.3Zm0,0" transform="translate(-195.33 -111.333)" fill="#78767f"/>
    <path id="Path_90" data-name="Path 90" d="M56.49,370.813a4.227,4.227,0,1,1-4.227-4.228A4.227,4.227,0,0,1,56.49,370.813Zm0,0" transform="translate(-45.051 -343.841)" fill="#78767f"/>
    <path id="Path_91" data-name="Path 91" d="M90.822,407.581a1.792,1.792,0,1,1-1.792-1.792A1.792,1.792,0,0,1,90.822,407.581Zm0,0" transform="translate(-81.818 -380.608)" fill="#d8d7da"/>
    <path id="Path_92" data-name="Path 92" d="M336.338,370.813a4.227,4.227,0,1,1-4.228-4.228A4.228,4.228,0,0,1,336.338,370.813Zm0,0" transform="translate(-307.511 -343.841)" fill="#78767f"/>
    <path id="Path_93" data-name="Path 93" d="M370.669,407.581a1.792,1.792,0,1,1-1.792-1.792A1.792,1.792,0,0,1,370.669,407.581Zm0,0" transform="translate(-344.279 -380.608)" fill="#d8d7da"/>
    <path id="Path_94" data-name="Path 94" d="M22.439,233.309l-.568,2.3.514,1.92H50.45l.514-1.92-.568-2.3Zm0,0" transform="translate(-20.512 -218.844)" fill="#c6c5ca"/>
    <path id="Path_95" data-name="Path 95" d="M30.452,196.223H1.359A1.359,1.359,0,0,0,0,197.581v1.891a1.359,1.359,0,0,0,1.359,1.359H30.452a1.359,1.359,0,0,0,1.359-1.359v-1.891A1.359,1.359,0,0,0,30.452,196.223Zm0,0" transform="translate(0 -184.062)" fill="#d8d7da"/>
  </g>
</svg>
