<svg xmlns="http://www.w3.org/2000/svg" width="38.486" height="38.486" viewBox="0 0 38.486 38.486">
  <path id="Path_3" data-name="Path 3" d="M34.713,40.486H7.773A5.773,5.773,0,0,1,2,34.713V3.924A1.924,1.924,0,0,1,3.924,2h26.94a1.924,1.924,0,0,1,1.924,1.924V27.016h7.7v7.7A5.773,5.773,0,0,1,34.713,40.486Zm-1.924-9.622v3.849a1.924,1.924,0,0,0,3.849,0V30.865ZM28.94,36.638V5.849H5.849V34.713a1.924,1.924,0,0,0,1.924,1.924ZM9.7,11.622H25.092V15.47H9.7Zm0,7.7H25.092v3.849H9.7Zm0,7.7h9.622v3.849H9.7Z" transform="translate(-2 -2)"/>
</svg>
