<svg xmlns="http://www.w3.org/2000/svg" width="30.639" height="30.425" viewBox="0 0 30.639 30.425">
  <g id="pick" style="mix-blend-mode: luminosity;isolation: isolate">
    <g id="Group_65" data-name="Group 65" transform="translate(1.465 12.219)">
      <path id="Path_67" data-name="Path 67" d="M27.222,211.828c0-.368.014-.74.041-1.106a.445.445,0,0,0-.444-.478h-.755a1.584,1.584,0,0,0,0,3.169h.755a.445.445,0,0,0,.444-.478C27.236,212.569,27.222,212.2,27.222,211.828Z" transform="translate(-24.48 -209.988)" fill="#957856"/>
      <path id="Path_68" data-name="Path 68" d="M182.467,205.967H165.021a.445.445,0,0,0-.445.445v2.79a.445.445,0,0,0,.445.445h17.447a1.84,1.84,0,1,0,0-3.681Z" transform="translate(-156.192 -205.967)" fill="#957856"/>
    </g>
    <path id="Path_69" data-name="Path 69" d="M182.467,219.309H165.021a.445.445,0,0,1-.445-.445v2.174a.445.445,0,0,0,.445.445h17.447a1.839,1.839,0,0,0,1.484-2.927A1.839,1.839,0,0,1,182.467,219.309Z" transform="translate(-154.727 -205.584)" fill="#806749"/>
    <path id="Path_70" data-name="Path 70" d="M169.357,283.521l-1.4-2.041a.445.445,0,0,0-.644-.1l-2.568,2.041a.445.445,0,0,0-.123.544l1.285,2.624a.445.445,0,0,0,.324.243.451.451,0,0,0,.075.006.445.445,0,0,0,.311-.127l2.683-2.624A.445.445,0,0,0,169.357,283.521Z" transform="translate(-154.728 -264.561)" fill="#594333"/>
    <path id="Path_71" data-name="Path 71" d="M185.736,283.521l-1.4-2.041a.445.445,0,0,0-.644-.1l-.742.59,1.062,1.548a.445.445,0,0,1-.056.57L182,286l.288.588a.445.445,0,0,0,.711.122l2.683-2.624A.445.445,0,0,0,185.736,283.521Z" transform="translate(-171.108 -264.561)" fill="#3f2f25"/>
    <path id="Path_72" data-name="Path 72" d="M272.352,76.319l-.68-2.2a.445.445,0,0,0-.6-.276l-3.827,1.675a.445.445,0,0,0-.244.267l-.968,2.9a.445.445,0,0,0,.422.586h3.594a.445.445,0,0,0,.349-.169l1.882-2.374A.445.445,0,0,0,272.352,76.319Z" transform="translate(-250.088 -69.492)" fill="#594333"/>
    <path id="Path_73" data-name="Path 73" d="M300.053,76.319l-.68-2.2a.445.445,0,0,0-.6-.276l-1.548.678.556,1.8a.445.445,0,0,1-.077.408L295.819,79.1a.445.445,0,0,1-.349.169h2.276a.445.445,0,0,0,.349-.169l1.882-2.374A.445.445,0,0,0,300.053,76.319Z" transform="translate(-277.789 -69.492)" fill="#3f2f25"/>
    <path id="Path_74" data-name="Path 74" d="M59.492,18.566a.046.046,0,0,1,.011-.038.044.044,0,0,1,.035-.016h2.869a.445.445,0,0,0,.445-.445V13.624a.445.445,0,0,0-.445-.445H59.538a.044.044,0,0,1-.035-.016.046.046,0,0,1-.011-.038A18.009,18.009,0,0,1,65.019,2.558a.445.445,0,0,0-.474-.737,14.61,14.61,0,0,0-6.564,5.467,15.625,15.625,0,0,0,0,17.115,14.61,14.61,0,0,0,6.564,5.467.445.445,0,0,0,.474-.737A18.009,18.009,0,0,1,59.492,18.566Z" transform="translate(-52.113 -1.787)" fill="#e0e0e2"/>
    <g id="Group_66" data-name="Group 66" transform="translate(3.317 12.92)">
      <path id="Path_75" data-name="Path 75" d="M62.9,229.763a14.728,14.728,0,0,1-4.922-4.655,15.4,15.4,0,0,1-2.511-7.419q-.04.566-.041,1.139a15.453,15.453,0,0,0,2.552,8.558,14.61,14.61,0,0,0,6.564,5.467.445.445,0,0,0,.474-.737A17.526,17.526,0,0,1,62.9,229.763Z" transform="translate(-55.431 -217.689)" fill="#c6c5ca"/>
      <path id="Path_76" data-name="Path 76" d="M126.657,238.061v-2.278a.445.445,0,0,1-.445.445h-2.869a.044.044,0,0,0-.035.016.046.046,0,0,0-.011.038,18.188,18.188,0,0,0,.471,2.224h2.443A.445.445,0,0,0,126.657,238.061Z" transform="translate(-119.235 -234.7)" fill="#c6c5ca"/>
    </g>
    <path id="Path_77" data-name="Path 77" d="M13.117,419l-6.929-4.864a.445.445,0,0,0-.494-.011l-4.023,2.557a.444.444,0,0,0-.137.137L.069,419.123a.445.445,0,0,0,.376.684H12.861a.445.445,0,0,0,.256-.809Z" transform="translate(0 -389.381)" fill="#594333"/>
    <path id="Path_78" data-name="Path 78" d="M84.751,419l-6.929-4.864a.445.445,0,0,0-.494-.011l-1.134.721L82.112,419a.445.445,0,0,1-.256.809H84.5a.445.445,0,0,0,.256-.809Z" transform="translate(-71.634 -389.381)" fill="#3f2f25"/>
    <path id="Path_79" data-name="Path 79" d="M225.684,315.9l-1.329-4.086a.443.443,0,0,0-.045-.1l-2.769-4.475a.445.445,0,0,0-.136-.139l-4.43-2.88a.445.445,0,0,0-.382-.049L210.5,306.2a.445.445,0,0,0-.178.111l-2.713,2.777a.445.445,0,0,0-.105.447l1.252,3.888v2.621a.445.445,0,0,0,.445.445h16.059a.445.445,0,0,0,.423-.583Z" transform="translate(-195.067 -286.062)" fill="#594333"/>
    <path id="Path_80" data-name="Path 80" d="M348.445,315.9l-1.329-4.086a.444.444,0,0,0-.045-.1l-2.769-4.475a.444.444,0,0,0-.136-.139l-4.43-2.88a.445.445,0,0,0-.382-.049l-1.3.429,3.845,2.5a.445.445,0,0,1,.136.139l2.769,4.475a.452.452,0,0,1,.045.1l1.329,4.086a.445.445,0,0,1-.423.583h2.263a.445.445,0,0,0,.423-.583Z" transform="translate(-317.828 -286.062)" fill="#3f2f25"/>
  </g>
</svg>
