<svg xmlns="http://www.w3.org/2000/svg" width="36.953" height="34.25" viewBox="0 0 36.953 34.25">
  <path id="Path_2" data-name="Path 2" d="M14.047,5.893h8.882a1.631,1.631,0,0,1,1.383.767l5.637,9.019h7.189a.816.816,0,0,1,.716,1.206L31.395,28.726H30.357a9.8,9.8,0,0,1-2.5-.323l5.162-9.462H4.914l1.71,9.5a9.8,9.8,0,0,1-2.362.287h-.89L1.35,17.6a1.631,1.631,0,0,1,1.6-1.923H4.262V7.524A1.631,1.631,0,0,1,5.893,5.893H7.524V1h6.524ZM7.524,15.678H26.1L22.025,9.155H7.524ZM4.262,31.988A9.749,9.749,0,0,0,10.786,29.5a9.786,9.786,0,0,0,13.047,0,9.749,9.749,0,0,0,6.524,2.492h3.262V35.25H30.357A12.987,12.987,0,0,1,23.833,33.5a13.063,13.063,0,0,1-13.047,0A12.987,12.987,0,0,1,4.262,35.25H1V31.988Z" transform="translate(-1 -1)"/>
</svg>
