<svg xmlns="http://www.w3.org/2000/svg" width="34.152" height="34.444" viewBox="0 0 34.152 34.444">
  <g id="wheat-sack" style="mix-blend-mode: luminosity;isolation: isolate">
    <g id="Group_69" data-name="Group 69" transform="translate(0 10.122)">
      <g id="Group_68" data-name="Group 68">
        <path id="Path_96" data-name="Path 96" d="M47.631,97.8,45.564,85.992H26.338L24.272,97.8l-2.83,2.841-.323,2.434H50.784l-.323-2.434Z" transform="translate(-21.119 -85.992)" fill="#895122"/>
      </g>
    </g>
    <g id="Group_70" data-name="Group 70" transform="translate(3.505 19.083)">
      <path id="Path_97" data-name="Path 97" d="M154.775,159.782l-.441-.443-.032-.185a10.47,10.47,0,0,1-6.272,1.191l-.054.785q.589.041,1.139.04A10.461,10.461,0,0,0,154.775,159.782Z" transform="translate(-131.327 -156.491)" fill="#b0713b"/>
      <path id="Path_98" data-name="Path 98" d="M43.327,142.394l-.147.838a11.674,11.674,0,0,0,6.073,1.4q.584,0,1.225-.038l-.048-.785c-4.038.246-6.232-.833-7.1-1.415Z" transform="translate(-43.181 -142.394)" fill="#b0713b"/>
    </g>
    <g id="Group_72" data-name="Group 72" transform="translate(4.471 0)">
      <g id="Group_71" data-name="Group 71">
        <path id="Path_99" data-name="Path 99" d="M69.986,30.985l-7.539-7.539a3.991,3.991,0,0,0-5.644,0l-7.539,7.539Z" transform="translate(-49.264 -22.277)" fill="#ffd44f"/>
      </g>
    </g>
    <g id="Group_74" data-name="Group 74" transform="translate(3.402 6.734)">
      <g id="Group_73" data-name="Group 73">
        <path id="Path_100" data-name="Path 100" d="M65.125,69.489a1.2,1.2,0,0,1-1.46,1.026,44.939,44.939,0,0,0-19.4,0A1.2,1.2,0,0,1,42.8,69.49l-.26-2.214a1.2,1.2,0,0,1,.885-1.3,42.97,42.97,0,0,1,21.075,0,1.2,1.2,0,0,1,.885,1.3Z" transform="translate(-42.532 -64.667)" fill="#b0713b"/>
      </g>
    </g>
    <g id="Group_89" data-name="Group 89" transform="translate(13.864 0.971)">
      <g id="Group_76" data-name="Group 76" transform="translate(1.916 0.411)">
        <g id="Group_75" data-name="Group 75">
          <path id="Path_101" data-name="Path 101" d="M120.957,30.981a.513.513,0,1,0,.513.513A.514.514,0,0,0,120.957,30.981Z" transform="translate(-120.444 -30.981)" fill="#f9a730"/>
        </g>
      </g>
      <g id="Group_78" data-name="Group 78" transform="translate(0 1.449)">
        <g id="Group_77" data-name="Group 77">
          <path id="Path_102" data-name="Path 102" d="M108.9,37.513a.513.513,0,1,0,.513.513A.513.513,0,0,0,108.9,37.513Z" transform="translate(-108.386 -37.513)" fill="#f9a730"/>
        </g>
      </g>
      <g id="Group_80" data-name="Group 80" transform="translate(0.431)">
        <g id="Group_79" data-name="Group 79">
          <path id="Path_103" data-name="Path 103" d="M111.609,28.391a.513.513,0,1,0,.513.513A.514.514,0,0,0,111.609,28.391Z" transform="translate(-111.096 -28.391)" fill="#f9a730"/>
        </g>
      </g>
      <g id="Group_82" data-name="Group 82" transform="translate(1.548 1.836)">
        <g id="Group_81" data-name="Group 81">
          <path id="Path_104" data-name="Path 104" d="M118.6,39.947a.473.473,0,1,0,.473.473A.474.474,0,0,0,118.6,39.947Z" transform="translate(-118.13 -39.947)" fill="#f9a730"/>
        </g>
      </g>
      <g id="Group_84" data-name="Group 84" transform="translate(3.105 1.477)">
        <g id="Group_83" data-name="Group 83">
          <path id="Path_105" data-name="Path 105" d="M128.874,38.159a.473.473,0,1,0-.473.473A.474.474,0,0,0,128.874,38.159Z" transform="translate(-127.928 -37.686)" fill="#f9a730"/>
        </g>
      </g>
      <g id="Group_86" data-name="Group 86" transform="translate(3.304 2.834)">
        <g id="Group_85" data-name="Group 85">
          <path id="Path_106" data-name="Path 106" d="M129.657,46.228a.473.473,0,1,0,.473.473A.474.474,0,0,0,129.657,46.228Z" transform="translate(-129.184 -46.228)" fill="#f9a730"/>
        </g>
      </g>
      <g id="Group_88" data-name="Group 88" transform="translate(4.621 3.353)">
        <g id="Group_87" data-name="Group 87">
          <path id="Path_107" data-name="Path 107" d="M137.947,49.494a.473.473,0,1,0,.473.473A.474.474,0,0,0,137.947,49.494Z" transform="translate(-137.474 -49.494)" fill="#f9a730"/>
        </g>
      </g>
    </g>
    <g id="Group_134" data-name="Group 134" transform="translate(10.945 8.483)">
      <g id="Group_111" data-name="Group 111" transform="translate(0.117)">
        <g id="Group_108" data-name="Group 108" transform="translate(1.832)">
          <g id="Group_91" data-name="Group 91" transform="translate(4.642 2.455)">
            <g id="Group_90" data-name="Group 90">
              <path id="Path_108" data-name="Path 108" d="M133.979,94.6c1.05-2.279-2-3.476-2-3.476s-1.487,2.872.791,3.923a1.014,1.014,0,0,0,.662.014A1.093,1.093,0,0,0,133.979,94.6Z" transform="translate(-131.5 -91.123)" fill="#f9a730"/>
            </g>
          </g>
          <g id="Group_93" data-name="Group 93" transform="translate(3.098 5.808)">
            <g id="Group_92" data-name="Group 92">
              <path id="Path_109" data-name="Path 109" d="M124.254,115.7c1.05-2.279-2-3.476-2-3.476s-1.487,2.872.791,3.922a1.015,1.015,0,0,0,.662.014A1.093,1.093,0,0,0,124.254,115.7Z" transform="translate(-121.775 -112.227)" fill="#f9a730"/>
            </g>
          </g>
          <g id="Group_95" data-name="Group 95" transform="translate(1.553 9.16)">
            <g id="Group_94" data-name="Group 94">
              <path id="Path_110" data-name="Path 110" d="M114.529,136.806c1.05-2.279-2-3.476-2-3.476s-1.487,2.873.791,3.923a1.015,1.015,0,0,0,.662.014,1.093,1.093,0,0,0,.549-.46Z" transform="translate(-112.05 -133.331)" fill="#f9a730"/>
            </g>
          </g>
          <g id="Group_97" data-name="Group 97" transform="translate(0 12.529)">
            <g id="Group_96" data-name="Group 96">
              <path id="Path_111" data-name="Path 111" d="M104.757,158.013c1.05-2.279-2-3.476-2-3.476s-1.487,2.872.791,3.922a1.015,1.015,0,0,0,.662.014A1.093,1.093,0,0,0,104.757,158.013Z" transform="translate(-102.278 -154.538)" fill="#f9a730"/>
            </g>
          </g>
          <g id="Group_99" data-name="Group 99" transform="translate(7.903 5.07)">
            <g id="Group_98" data-name="Group 98">
              <path id="Path_112" data-name="Path 112" d="M152.078,108.834c1.05-2.279,3.943-.737,3.943-.737s-1.217,3-3.5,1.947a1.014,1.014,0,0,1-.44-.494A1.092,1.092,0,0,1,152.078,108.834Z" transform="translate(-152.021 -107.587)" fill="#f9a730"/>
            </g>
          </g>
          <g id="Group_101" data-name="Group 101" transform="translate(6.358 8.423)">
            <g id="Group_100" data-name="Group 100">
              <path id="Path_113" data-name="Path 113" d="M142.354,129.938c1.05-2.279,3.943-.737,3.943-.737s-1.217,3-3.5,1.947a1.015,1.015,0,0,1-.44-.494A1.092,1.092,0,0,1,142.354,129.938Z" transform="translate(-142.296 -128.691)" fill="#f9a730"/>
            </g>
          </g>
          <g id="Group_103" data-name="Group 103" transform="translate(4.813 11.776)">
            <g id="Group_102" data-name="Group 102">
              <path id="Path_114" data-name="Path 114" d="M132.628,151.042c1.05-2.279,3.943-.737,3.943-.737s-1.217,3-3.5,1.947a1.015,1.015,0,0,1-.44-.494A1.092,1.092,0,0,1,132.628,151.042Z" transform="translate(-132.571 -149.795)" fill="#f9a730"/>
            </g>
          </g>
          <g id="Group_105" data-name="Group 105" transform="translate(3.26 15.145)">
            <g id="Group_104" data-name="Group 104">
              <path id="Path_115" data-name="Path 115" d="M122.856,172.249c1.05-2.279,3.943-.737,3.943-.737s-1.217,3-3.5,1.947a1.014,1.014,0,0,1-.44-.494A1.092,1.092,0,0,1,122.856,172.249Z" transform="translate(-122.799 -171.002)" fill="#f9a730"/>
            </g>
          </g>
          <g id="Group_107" data-name="Group 107" transform="translate(7.967)">
            <g id="Group_106" data-name="Group 106">
              <path id="Path_116" data-name="Path 116" d="M153.756,79.544c2.354-.869,1.042-3.873,1.042-3.873s-3.083.979-2.214,3.333a1.015,1.015,0,0,0,.458.478A1.092,1.092,0,0,0,153.756,79.544Z" transform="translate(-152.43 -75.671)" fill="#f9a730"/>
            </g>
          </g>
        </g>
        <g id="Group_110" data-name="Group 110" transform="translate(0 3.574)">
          <g id="Group_109" data-name="Group 109" transform="translate(0 0)">
            <path id="Path_117" data-name="Path 117" d="M0,0H24.184V.786H0Z" transform="translate(0 21.959) rotate(-65.229)" fill="#ffd44f"/>
          </g>
        </g>
      </g>
      <g id="Group_133" data-name="Group 133" transform="translate(0 11.505)">
        <g id="Group_113" data-name="Group 113" transform="translate(0 3.604)">
          <g id="Group_112" data-name="Group 112">
            <path id="Path_118" data-name="Path 118" d="M90.568,181.625l-.556-.556,7.161-7.161a10.42,10.42,0,0,1,7.2-3.064l4.7-.072.012.786-4.7.072a9.636,9.636,0,0,0-6.655,2.834Z" transform="translate(-90.012 -170.772)" fill="#f9ae35"/>
          </g>
        </g>
        <g id="Group_132" data-name="Group 132" transform="translate(5.161)">
          <g id="Group_115" data-name="Group 115" transform="translate(10.402 0.496)">
            <g id="Group_114" data-name="Group 114">
              <path id="Path_119" data-name="Path 119" d="M188.884,154.483c2.509,0,2.319-3.273,2.319-3.273s-3.231-.149-3.231,2.36a1.014,1.014,0,0,0,.265.607A1.093,1.093,0,0,0,188.884,154.483Z" transform="translate(-187.972 -151.209)" fill="#ffd44f"/>
            </g>
          </g>
          <g id="Group_117" data-name="Group 117" transform="translate(6.85)">
            <g id="Group_116" data-name="Group 116">
              <path id="Path_120" data-name="Path 120" d="M166.935,152.082c2.5-.8,1.27-3.994,1.27-3.994s-3.264.877-2.468,3.375a1.06,1.06,0,0,0,.456.52A1.142,1.142,0,0,0,166.935,152.082Z" transform="translate(-165.613 -148.089)" fill="#ffd44f"/>
            </g>
          </g>
          <g id="Group_119" data-name="Group 119" transform="translate(10.402 4.257)">
            <g id="Group_118" data-name="Group 118">
              <path id="Path_121" data-name="Path 121" d="M188.884,174.882c2.509,0,2.319,3.273,2.319,3.273s-3.231.149-3.231-2.36a1.014,1.014,0,0,1,.265-.606A1.092,1.092,0,0,1,188.884,174.882Z" transform="translate(-187.972 -174.882)" fill="#ffd44f"/>
            </g>
          </g>
          <g id="Group_121" data-name="Group 121" transform="translate(6.97 4.466)">
            <g id="Group_120" data-name="Group 120">
              <path id="Path_122" data-name="Path 122" d="M167.216,176.208c2.5-.182,2.55,3.1,2.55,3.1s-3.212.383-3.394-2.119a1.014,1.014,0,0,1,.22-.624A1.092,1.092,0,0,1,167.216,176.208Z" transform="translate(-166.372 -176.201)" fill="#ffd44f"/>
            </g>
          </g>
          <g id="Group_123" data-name="Group 123" transform="translate(13.85 2.674)">
            <g id="Group_122" data-name="Group 122">
              <path id="Path_123" data-name="Path 123" d="M209.919,166.868c1.774,1.774,3.954-.674,3.954-.674s-2.18-2.39-3.954-.616a1.015,1.015,0,0,0-.242.616A1.092,1.092,0,0,0,209.919,166.868Z" transform="translate(-209.677 -164.922)" fill="#ffd44f"/>
            </g>
          </g>
          <g id="Group_125" data-name="Group 125" transform="translate(3.282 0.673)">
            <g id="Group_124" data-name="Group 124">
              <path id="Path_124" data-name="Path 124" d="M144.817,156.578c2.317-1.331.406-4.253.406-4.253s-3.063,1.577-1.732,3.894a1.081,1.081,0,0,0,.566.42A1.165,1.165,0,0,0,144.817,156.578Z" transform="translate(-143.155 -152.325)" fill="#ffd44f"/>
            </g>
          </g>
          <g id="Group_127" data-name="Group 127" transform="translate(3.722 5.525)">
            <g id="Group_126" data-name="Group 126">
              <path id="Path_125" data-name="Path 125" d="M146.654,182.911c2.464-.472,2.893,2.778,2.893,2.778s-3.146.754-3.617-1.711a1.015,1.015,0,0,1,.146-.645A1.093,1.093,0,0,1,146.654,182.911Z" transform="translate(-145.922 -182.864)" fill="#ffd44f"/>
            </g>
          </g>
          <g id="Group_129" data-name="Group 129" transform="translate(1.432 7.438)">
            <g id="Group_128" data-name="Group 128">
              <path id="Path_126" data-name="Path 126" d="M131.986,195.094c2.1-.921,3.14,1.884,3.14,1.884s-2.647,1.311-3.568-.787a.926.926,0,0,1,0-.6A1,1,0,0,1,131.986,195.094Z" transform="translate(-131.508 -194.908)" fill="#ffd44f"/>
            </g>
          </g>
          <g id="Group_131" data-name="Group 131" transform="translate(0 2.625)">
            <g id="Group_130" data-name="Group 130">
              <path id="Path_127" data-name="Path 127" d="M124.271,169.019c2.345-1.459.264-4.408.264-4.408s-3.107,1.741-1.647,4.086a1.117,1.117,0,0,0,.6.413A1.2,1.2,0,0,0,124.271,169.019Z" transform="translate(-122.497 -164.611)" fill="#ffd44f"/>
            </g>
          </g>
        </g>
      </g>
    </g>
  </g>
</svg>
